<svg version="1.1" id="Logo_2_Color" xmlns:x="http://ns.adobe.com/Extensibility/1.0/" xmlns:i="http://ns.adobe.com/AdobeIllustrator/10.0/" xmlns:graph="http://ns.adobe.com/Graphs/1.0/" xmlns="http://www.w3.org/2000/svg" xmlns:xlink="http://www.w3.org/1999/xlink" x="0px" y="0px" enable-background="new 0 0 2500 540" xml:space="preserve" viewBox="149.98 112.22 2200.02 315.57">
<metadata>
	<sfw xmlns="http://ns.adobe.com/SaveForWeb/1.0/">
		<slices/>
		<sliceSourceBounds bottomLeftOrigin="true" height="315.55" width="2200" x="272.5" y="-1605.27"/>
		<optimizationSettings>
			<targetSettings fileFormat="PNG24Format" targetSettingsID="0">
				<PNG24Format filtered="false" interlaced="false" matteColor="#FFFFFF" noMatteColor="false" transparency="true">
					</PNG24Format>
			</targetSettings>
		</optimizationSettings>
	</sfw>
</metadata>
<g>
	<path fill="#FB9062" d="M376.85,300.86c-5.97-9.13-11.07-18.85-15.28-28.97c-2.94-7.07-7.28-13.69-13.03-19.43   c-4.55-4.55-9.65-8.21-15.09-11l-34.3,59.4H376.85z"/>
	<path fill="#FB9062" d="M200.09,382.37c6.63,26.04,30.29,45.4,58.35,45.4c9.96,0,19.36-2.41,27.63-6.69   c1.87-0.97,3.8-1.79,5.76-2.47l20.93-36.25H200.09z"/>
	<path fill="#FB9062" d="M393.78,412.22c12.23-11.06,19.93-27.05,19.9-44.77c-0.03-16.31-6.55-31.11-17.11-41.93   c-3.18-3.26-6.21-6.66-9.1-10.16h-49.62L393.78,412.22z"/>
	<path fill="#FB9062" d="M329.49,382.37L329.49,382.37l-19.66,34.05c5.52,0.49,10.96,2.05,16.02,4.66   c8.28,4.28,17.67,6.69,27.63,6.69c10.27,0,19.94-2.6,28.41-7.16l-37.24-64.51L329.49,382.37z"/>
	<path fill="#FB9062" d="M235.23,300.62c-5.8,8.9-12.43,17.25-19.88,24.89c-10.56,10.83-17.08,25.62-17.11,41.93   c0,0.15,0,0.29,0,0.44h75.82L235.23,300.62z"/>
	<path fill="#FB9062" d="M282.43,300.86L282.43,300.86l37.21-64.45c-19.59-4.54-41.02,0.81-56.26,16.05   c-5.75,5.75-10.09,12.37-13.03,19.43c-2.03,4.88-4.26,9.66-6.7,14.33l23.62,40.9L282.43,300.86z"/>
</g>
<g>
	<polygon fill="#6A0D83" points="290.79,367.88 321.12,367.88 336.29,341.62 321.12,315.35 290.79,315.35 275.63,341.62  "/>
	
		<ellipse transform="matrix(0.9937 -0.1122 0.1122 0.9937 -17.3737 29.4274)" fill="#6A0D83" cx="252.83" cy="169.11" rx="39.17" ry="57.07"/>
	
		<ellipse transform="matrix(0.1122 -0.9937 0.9937 0.1122 150.7681 506.963)" fill="#6A0D83" cx="359.09" cy="169.11" rx="57.07" ry="39.17"/>
	
		<ellipse transform="matrix(0.8694 -0.494 0.494 0.8694 -101.6432 126.0995)" fill="#6A0D83" cx="187.76" cy="255.36" rx="33.45" ry="48.74"/>
	
		<ellipse transform="matrix(0.494 -0.8694 0.8694 0.494 -7.4143 497.9826)" fill="#6A0D83" cx="424.15" cy="255.36" rx="48.74" ry="33.45"/>
</g>
<g>
	<path fill="#FB9062" d="M697.33,332.09c0,33.14-25.99,50.17-61.98,50.17c-23.95,0-42.23-6.58-59.25-15.78l11.58-30.76   c15.55,8.17,32.24,14.53,47.67,14.53c18.39,0,28.6-5.45,28.6-18.16c0-21.91-14.64-27.81-29.06-35.64   c-14.19-7.6-28.15-15.89-28.15-38.14c0-14.64,9.99-28.49,35.19-28.49c11.12,0,21.91,2.38,34.05,7.49l4.77-13.05   c-10.1-4.54-18.05-7.38-38.93-7.38c-27.13,0-49.38,13.96-49.38,41.54c0,24.75,13.73,38.94,31.33,46.99l-3.29,8.97   c-24.18-10.9-37.57-29.63-37.57-55.96c0-33.83,27.47-51.08,58.91-51.08c26.45,0,36.55,4.88,50.85,12.15l-11.35,30.88   c-13.85-7.15-26.11-11.01-39.39-11.01c-16.91,0-25.65,6.92-25.65,18.96c0,17.48,11.01,23.16,23.38,29.85   c15.78,8.51,33.83,16.91,33.83,43.93c0,10.33-4.88,27.7-38.14,27.7c-12.6,0-26.9-3.63-42.45-10.9l-4.88,12.94   c16,7.61,30.53,10.9,47.33,10.9c26.56,0,52.44-10.22,52.44-40.64c0-25.65-12.15-42.68-39.39-53.92l3.18-8.97   C681.21,281.23,697.33,300.76,697.33,332.09z"/>
	<path fill="#FB9062" d="M863.51,209.83v170.04h-33.37v-73.33h-86.38v63.79h14.3v-50.85h9.54v60.39h-33.37v-82.86h105.45v73.33h14.3   V219.37h-14.3v64.7H734.22v-74.24h33.37v51.76h-9.54v-42.23h-14.3v55.17h86.38v-64.7H863.51z"/>
	<path fill="#FB9062" d="M1038.19,209.83v104.09c0,39.05-20.43,68.33-64.59,68.33c-1.59,0-3.18,0-4.77-0.11v-22.59   c-14.98-0.91-36.1-9.65-36.1-45.63v-94.55h-14.3v94.55c0,20.55,6.24,47.56,36.1,56.41v9.88c-30.99-7.72-45.63-33.26-45.63-66.29   V209.83h33.37v104.09c0,24.06,10.1,36.32,31.33,36.32c1.7,0,3.18-0.11,4.77-0.23v22.59c43.59-2.5,50.29-37.91,50.29-58.69v-94.55   h-14.3v94.55c0,25.31-10.33,37-21.68,42.11v-10.9c8.17-5.79,12.15-16.12,12.15-31.22V209.83H1038.19z"/>
	<path fill="#FB9062" d="M1191.43,209.83v32.01h-29.97v-9.53h20.43v-12.94h-34.73v160.5h-33.37v-160.5h-34.85v12.94h20.55v9.53   h-30.08v-32.01h53.92v160.5h14.3v-160.5H1191.43z"/>
	<path fill="#FB9062" d="M1336.15,209.83v32.01h-29.97v-9.53h20.43v-12.94h-34.73v160.5h-33.37v-160.5h-34.85v12.94h20.55v9.53   h-30.08v-32.01h53.92v160.5h14.3v-160.5H1336.15z"/>
	<path fill="#FB9062" d="M1472.58,347.86v32.01h-105.22V209.83h103.64v32.01h-70.26v19.86h-9.54v-29.4h70.26v-12.94h-84.57v150.97   h86.15V357.4h-71.85v-82.75h77.19v32.01h-53.35v-9.54h43.82v-12.94h-58.12v63.68H1472.58z"/>
	<path fill="#FB9062" d="M1631.94,263.75c0,20.66-8.97,37.34-24.86,46.31l-5.56-7.6c14.3-8.4,20.89-21.68,20.89-38.71   c0-27.36-20.32-44.38-51.42-44.38h-49.15v150.97h14.3V287.7h9.88l60.73,82.64h16.8l-61.3-82.64h9.31c21,0,27.02-11.24,27.02-23.95   c0-14.3-10.1-21.91-25.88-21.91h-27.01v32.92h-9.54v-42.45h36.55c21.57,0,35.42,12.37,35.42,31.44c0,18.05-10.1,30.19-27.47,32.69   l61.86,83.43h-40.64l-56.19-76.62v76.62h-33.37V209.83h58.69C1610.15,209.83,1631.94,233.56,1631.94,263.75z"/>
</g>
<g>
	<path fill="#6A0D83" d="M1790.86,265.57c0,32.46-20.43,57.1-56.19,57.1h-15.32v-9.53h15.32c29.06,0,46.65-18.96,46.65-47.56   c0-13.96-4.99-46.2-50.85-46.2h-49.26v150.97h14.3v-79.68h36.55c19.64,0,25.43-11.47,25.43-25.09c0-15.1-8.51-23.72-23.84-23.72   h-28.6v35.87h-9.54v-45.4h38.14c20.55,0,33.37,12.71,33.37,33.26c0,22.02-12.83,34.62-34.96,34.62h-27.01v79.68h-33.37V209.83h58.8   C1773.26,209.83,1790.86,236.17,1790.86,265.57z"/>
	<path fill="#6A0D83" d="M1962.14,379.87h-34.85l-15.32-42.34h-81.39l-11.92,32.8h14.42l7.26-19.86h10.1l-10.67,29.4h-34.73   l18.84-51.87h94.78l15.32,42.34h14.53l-54.94-150.97h-19.98l-31.33,86.15h58.12l-16.8-46.2l-12.15,33.26h-10.1l22.25-61.18   l30.42,83.66h-85.36l38.25-105.22h33.37L1962.14,379.87z"/>
	<path fill="#6A0D83" d="M2215.84,209.83l-58.23,170.04h-32.8l-55.05-160.5h-14.64l14.19,41.43l-32.46,95.35l-46.65-136.78h-14.64   l51.65,150.97h19.18l30.31-88.31l4.99,14.76l-28.49,83.09h-32.8l-58.23-170.04h34.85l39.84,116.69l22.36-65.72l-17.48-50.97h34.85   l55.05,160.5h19.18l51.65-150.97h-14.64l-46.65,136.78l-49.95-146.32h10.1l39.84,116.69l39.84-116.69H2215.84z"/>
	<path fill="#6A0D83" d="M2350,332.09c0,33.14-25.99,50.17-61.98,50.17c-23.95,0-42.23-6.58-59.25-15.78l11.58-30.76   c15.55,8.17,32.24,14.53,47.68,14.53c18.39,0,28.6-5.45,28.6-18.16c0-21.91-14.64-27.81-29.06-35.64   c-14.19-7.6-28.15-15.89-28.15-38.14c0-14.64,9.99-28.49,35.19-28.49c11.12,0,21.91,2.38,34.05,7.49l4.77-13.05   c-10.1-4.54-18.05-7.38-38.93-7.38c-27.13,0-49.38,13.96-49.38,41.54c0,24.75,13.73,38.94,31.33,46.99l-3.29,8.97   c-24.18-10.9-37.57-29.63-37.57-55.96c0-33.83,27.47-51.08,58.91-51.08c26.45,0,36.55,4.88,50.85,12.15L2334,250.36   c-13.85-7.15-26.11-11.01-39.39-11.01c-16.91,0-25.65,6.92-25.65,18.96c0,17.48,11.01,23.16,23.38,29.85   c15.78,8.51,33.83,16.91,33.83,43.93c0,10.33-4.88,27.7-38.14,27.7c-12.6,0-26.9-3.63-42.45-10.9l-4.88,12.94   c16,7.61,30.53,10.9,47.33,10.9c26.56,0,52.44-10.22,52.44-40.64c0-25.65-12.15-42.68-39.39-53.92l3.18-8.97   C2333.88,281.23,2350,300.76,2350,332.09z"/>
</g>
</svg>