<svg xmlns="http://www.w3.org/2000/svg" xml:space="preserve" viewBox="0 0 2500 540"><path fill="#FB9062" d="M376.85 300.86c-5.97-9.13-11.07-18.85-15.28-28.97a59.9 59.9 0 0 0-13.03-19.43 60 60 0 0 0-15.09-11l-34.3 59.4zm-176.76 81.51c6.63 26.04 30.29 45.4 58.35 45.4 9.96 0 19.36-2.41 27.63-6.69 1.87-.97 3.8-1.79 5.76-2.47l20.93-36.25H200.09zm193.69 29.85c12.23-11.06 19.93-27.05 19.9-44.77-.03-16.31-6.55-31.11-17.11-41.93-3.18-3.26-6.21-6.66-9.1-10.16h-49.62zm-64.29-29.85-19.66 34.05c5.52.49 10.96 2.05 16.02 4.66 8.28 4.28 17.67 6.69 27.63 6.69 10.27 0 19.94-2.6 28.41-7.16l-37.24-64.51zm-94.26-81.75c-5.8 8.9-12.43 17.25-19.88 24.89-10.56 10.83-17.08 25.62-17.11 41.93v.44h75.82zm47.2.24 37.21-64.45c-19.59-4.54-41.02.81-56.26 16.05a60.1 60.1 0 0 0-13.03 19.43 181 181 0 0 1-6.7 14.33l23.62 40.9z"/><g fill="#6A0D83"><path d="M290.79 367.88h30.33l15.17-26.26-15.17-26.27h-30.33l-15.16 26.27z"/><ellipse cx="252.83" cy="169.11" rx="39.17" ry="57.07" transform="rotate(-6.435 252.785 169.04)"/><ellipse cx="359.09" cy="169.11" rx="57.07" ry="39.17" transform="rotate(-83.558 359.096 169.103)"/><ellipse cx="187.76" cy="255.36" rx="33.45" ry="48.74" transform="rotate(-29.606 187.775 255.378)"/><ellipse cx="424.15" cy="255.36" rx="48.74" ry="33.45" transform="rotate(-60.394 424.174 255.375)"/></g><path fill="#FB9062" d="M697.33 332.09c0 33.14-25.99 50.17-61.98 50.17-23.95 0-42.23-6.58-59.25-15.78l11.58-30.76c15.55 8.17 32.24 14.53 47.67 14.53 18.39 0 28.6-5.45 28.6-18.16 0-21.91-14.64-27.81-29.06-35.64-14.19-7.6-28.15-15.89-28.15-38.14 0-14.64 9.99-28.49 35.19-28.49 11.12 0 21.91 2.38 34.05 7.49l4.77-13.05c-10.1-4.54-18.05-7.38-38.93-7.38-27.13 0-49.38 13.96-49.38 41.54 0 24.75 13.73 38.94 31.33 46.99l-3.29 8.97c-24.18-10.9-37.57-29.63-37.57-55.96 0-33.83 27.47-51.08 58.91-51.08 26.45 0 36.55 4.88 50.85 12.15l-11.35 30.88c-13.85-7.15-26.11-11.01-39.39-11.01-16.91 0-25.65 6.92-25.65 18.96 0 17.48 11.01 23.16 23.38 29.85 15.78 8.51 33.83 16.91 33.83 43.93 0 10.33-4.88 27.7-38.14 27.7-12.6 0-26.9-3.63-42.45-10.9l-4.88 12.94c16 7.61 30.53 10.9 47.33 10.9 26.56 0 52.44-10.22 52.44-40.64 0-25.65-12.15-42.68-39.39-53.92l3.18-8.97c29.63 12.02 45.75 31.55 45.75 62.88m166.18-122.26v170.04h-33.37v-73.33h-86.38v63.79h14.3v-50.85h9.54v60.39h-33.37v-82.86h105.45v73.33h14.3V219.37h-14.3v64.7H734.22v-74.24h33.37v51.76h-9.54v-42.23h-14.3v55.17h86.38v-64.7zm174.68 0v104.09c0 39.05-20.43 68.33-64.59 68.33-1.59 0-3.18 0-4.77-.11v-22.59c-14.98-.91-36.1-9.65-36.1-45.63v-94.55h-14.3v94.55c0 20.55 6.24 47.56 36.1 56.41v9.88c-30.99-7.72-45.63-33.26-45.63-66.29V209.83h33.37v104.09c0 24.06 10.1 36.32 31.33 36.32 1.7 0 3.18-.11 4.77-.23v22.59c43.59-2.5 50.29-37.91 50.29-58.69v-94.55h-14.3v94.55c0 25.31-10.33 37-21.68 42.11v-10.9c8.17-5.79 12.15-16.12 12.15-31.22V209.83zm153.24 0v32.01h-29.97v-9.53h20.43v-12.94h-34.73v160.5h-33.37v-160.5h-34.85v12.94h20.55v9.53h-30.08v-32.01h53.92v160.5h14.3v-160.5zm144.72 0v32.01h-29.97v-9.53h20.43v-12.94h-34.73v160.5h-33.37v-160.5h-34.85v12.94h20.55v9.53h-30.08v-32.01h53.92v160.5h14.3v-160.5zm136.43 138.03v32.01h-105.22V209.83H1471v32.01h-70.26v19.86h-9.54v-29.4h70.26v-12.94h-84.57v150.97h86.15V357.4h-71.85v-82.75h77.19v32.01h-53.35v-9.54h43.82v-12.94h-58.12v63.68zm159.36-84.11c0 20.66-8.97 37.34-24.86 46.31l-5.56-7.6c14.3-8.4 20.89-21.68 20.89-38.71 0-27.36-20.32-44.38-51.42-44.38h-49.15v150.97h14.3V287.7h9.88l60.73 82.64h16.8l-61.3-82.64h9.31c21 0 27.02-11.24 27.02-23.95 0-14.3-10.1-21.91-25.88-21.91h-27.01v32.92h-9.54v-42.45h36.55c21.57 0 35.42 12.37 35.42 31.44 0 18.05-10.1 30.19-27.47 32.69l61.86 83.43h-40.64l-56.19-76.62v76.62h-33.37V209.83H1571c39.15 0 60.94 23.73 60.94 53.92"/><path fill="#6A0D83" d="M1790.86 265.57c0 32.46-20.43 57.1-56.19 57.1h-15.32v-9.53h15.32c29.06 0 46.65-18.96 46.65-47.56 0-13.96-4.99-46.2-50.85-46.2h-49.26v150.97h14.3v-79.68h36.55c19.64 0 25.43-11.47 25.43-25.09 0-15.1-8.51-23.72-23.84-23.72h-28.6v35.87h-9.54v-45.4h38.14c20.55 0 33.37 12.71 33.37 33.26 0 22.02-12.83 34.62-34.96 34.62h-27.01v79.68h-33.37V209.83h58.8c42.78 0 60.38 26.34 60.38 55.74m171.28 114.3h-34.85l-15.32-42.34h-81.39l-11.92 32.8h14.42l7.26-19.86h10.1l-10.67 29.4h-34.73l18.84-51.87h94.78l15.32 42.34h14.53l-54.94-150.97h-19.98l-31.33 86.15h58.12l-16.8-46.2-12.15 33.26h-10.1l22.25-61.18 30.42 83.66h-85.36l38.25-105.22h33.37zm253.7-170.04-58.23 170.04h-32.8l-55.05-160.5h-14.64l14.19 41.43-32.46 95.35-46.65-136.78h-14.64l51.65 150.97h19.18l30.31-88.31 4.99 14.76-28.49 83.09h-32.8l-58.23-170.04h34.85l39.84 116.69 22.36-65.72-17.48-50.97h34.85l55.05 160.5h19.18l51.65-150.97h-14.64l-46.65 136.78-49.95-146.32h10.1l39.84 116.69 39.84-116.69zM2350 332.09c0 33.14-25.99 50.17-61.98 50.17-23.95 0-42.23-6.58-59.25-15.78l11.58-30.76c15.55 8.17 32.24 14.53 47.68 14.53 18.39 0 28.6-5.45 28.6-18.16 0-21.91-14.64-27.81-29.06-35.64-14.19-7.6-28.15-15.89-28.15-38.14 0-14.64 9.99-28.49 35.19-28.49 11.12 0 21.91 2.38 34.05 7.49l4.77-13.05c-10.1-4.54-18.05-7.38-38.93-7.38-27.13 0-49.38 13.96-49.38 41.54 0 24.75 13.73 38.94 31.33 46.99l-3.29 8.97c-24.18-10.9-37.57-29.63-37.57-55.96 0-33.83 27.47-51.08 58.91-51.08 26.45 0 36.55 4.88 50.85 12.15L2334 250.36c-13.85-7.15-26.11-11.01-39.39-11.01-16.91 0-25.65 6.92-25.65 18.96 0 17.48 11.01 23.16 23.38 29.85 15.78 8.51 33.83 16.91 33.83 43.93 0 10.33-4.88 27.7-38.14 27.7-12.6 0-26.9-3.63-42.45-10.9l-4.88 12.94c16 7.61 30.53 10.9 47.33 10.9 26.56 0 52.44-10.22 52.44-40.64 0-25.65-12.15-42.68-39.39-53.92l3.18-8.97c29.62 12.03 45.74 31.56 45.74 62.89"/></svg>