<svg xmlns="http://www.w3.org/2000/svg" xmlns:svg="http://www.w3.org/2000/svg" id="svg1" width="2462.256" height="427.136" version="1.1" viewBox="0 0 651.472 113.013" xml:space="preserve"><g id="layer1" transform="translate(260.92539,-38.115611)"><path style="fill:#fff" id="path1" d="m 191.58845,150.99301 c -1.05467,-0.17578 -1.58619,-0.33236 -2.34192,-0.68988 -2.38753,-1.12949 -4.1386,-3.40301 -4.6859,-6.08398 -0.18019,-0.88271 -0.60449,-7.38584 -0.85371,-13.08485 -0.2071,-4.73577 -0.28005,-7.79257 -0.31234,-13.08835 l -0.0317,-5.19895 -0.26747,-0.57892 c -0.49239,-1.0657 -0.62229,-1.71537 -0.62159,-3.10863 7.4e-4,-1.454 0.12061,-1.98658 0.72924,-3.24004 0.2075,-0.42736 0.39744,-0.86031 0.42208,-0.96212 0.0246,-0.10181 0.0774,-2.97334 0.11717,-6.381174 0.12516,-10.717146 0.33692,-12.415621 2.13517,-17.125763 0.61111,-1.600678 1.39308,-3.146061 2.0818,-4.114214 0.64122,-0.901381 2.07826,-2.372396 2.92212,-2.991213 0.93001,-0.681988 2.52443,-1.656525 3.75301,-2.293901 4.23067,-2.194837 8.93429,-2.922286 14.08546,-2.178416 7.23714,1.045103 12.83804,4.208197 16.88906,9.538046 3.19684,4.206017 4.93451,8.526137 5.40242,13.431211 0.11288,1.18337 0.0423,4.54786 -0.11951,5.69576 -0.56675,4.020924 -1.87575,7.504364 -4.04079,10.753114 -2.80175,4.20418 -6.30798,7.29702 -10.85365,9.57401 -5.28116,2.64541 -10.8529,3.6517 -15.52092,2.80319 -0.46147,-0.0839 -0.86502,-0.15304 -0.89677,-0.15368 -0.17474,-0.004 0.0612,6.88249 0.45228,13.19913 l 0.12867,2.07818 0.36445,0.65425 c 0.42998,0.77188 0.8461,1.79806 1.07678,2.65545 0.21244,0.7896 0.29255,2.54364 0.15554,3.40564 -0.20331,1.2791 -0.82764,2.82055 -1.67444,4.13409 -0.47198,0.73213 -1.69426,1.93253 -2.36979,2.32737 -1.73913,1.01651 -3.95219,1.38674 -6.12475,1.02464 z m 12.79371,-45.10855 c 2.91565,-0.29538 5.22448,-1.3459 7.24206,-3.29514 1.73443,-1.67567 2.85328,-3.538424 3.26421,-5.434504 0.18095,-0.83497 0.21713,-2.32991 0.0783,-3.23537 -0.29258,-1.90803 -1.20362,-3.783078 -2.60884,-5.369344 -1.19496,-1.34893 -3.00636,-2.292022 -5.39081,-2.8067 -0.94589,-0.204167 -3.03665,-0.185167 -3.83176,0.03482 -0.75836,0.209821 -1.5652,0.594705 -1.92152,0.916618 -1.05133,0.949812 -1.33986,3.602707 -1.41925,13.049175 -0.0237,2.822515 -0.0639,5.235695 -0.0893,5.362625 -0.0459,0.22951 -0.0428,0.23183 0.55878,0.42118 0.33272,0.10471 0.86471,0.22853 1.18221,0.27516 0.3175,0.0466 0.66386,0.0975 0.7697,0.11301 0.40981,0.0602 1.40399,0.0457 2.16623,-0.0315 z m -421.76651,40.55188 c -0.85408,-0.10573 -2.16858,-0.36765 -2.88042,-0.57393 -0.52977,-0.15352 -1.65627,-0.59008 -1.76218,-0.68292 -0.036,-0.0315 0.33699,-0.75255 0.7755,-1.49913 0.83281,-1.41791 1.58387,-2.70763 2.19631,-3.77151 0.43263,-0.75152 0.73643,-1.27357 1.90369,-3.27122 0.37104,-0.635 0.76084,-1.31041 0.86622,-1.50091 0.10538,-0.1905 0.37291,-0.65809 0.5945,-1.03909 0.22159,-0.381 0.60338,-1.03909 0.84842,-1.46242 0.24504,-0.42333 0.55724,-0.9602 0.69377,-1.19303 0.13653,-0.23283 0.43808,-0.75238 0.67012,-1.15455 0.64745,-1.12218 1.27643,-2.20722 1.67317,-2.88636 0.19784,-0.33867 0.56067,-0.96212 0.80629,-1.38546 0.24562,-0.42333 0.62767,-1.08142 0.849,-1.46242 0.22134,-0.381 0.63024,-1.09105 0.90868,-1.57788 0.27844,-0.48683 0.59772,-1.04101 0.70951,-1.23151 0.11179,-0.1905 0.41379,-0.71005 0.67111,-1.15455 1.61173,-2.78414 2.06001,-3.54061 2.09812,-3.54061 0.0151,0 0.12829,0.18185 0.25143,0.4041 0.12314,0.22225 0.40827,0.71581 0.63361,1.09681 0.22535,0.381 0.53683,0.91787 0.69218,1.19303 0.40374,0.71511 2.06422,3.57763 3.34862,5.77273 0.28486,0.48684 0.66573,1.14493 0.84638,1.46243 0.3752,0.65944 1.05381,1.83383 1.2898,2.23212 0.0878,0.14816 0.34918,0.59844 0.58085,1.0006 0.64764,1.12425 1.16248,2.00949 1.9025,3.27122 0.37243,0.635 0.82434,1.41431 1.00423,1.73181 0.17989,0.3175 0.53626,0.94012 0.79193,1.38359 0.25566,0.44347 0.45633,0.81482 0.44592,0.82523 -0.0104,0.0104 -0.48462,-0.1652 -1.05379,-0.39025 -1.34479,-0.53171 -1.70188,-0.61107 -2.72507,-0.60556 -1.04608,0.006 -1.41437,0.0873 -2.30593,0.51142 -0.77098,0.36673 -1.26179,0.7631 -2.46932,1.99416 -2.31936,2.36456 -4.2332,3.91638 -5.84108,4.73619 -0.21641,0.11033 -0.41078,0.22236 -0.43195,0.24893 -0.0653,0.082 -1.47729,0.76357 -1.58191,0.76357 -0.0542,0 -0.11014,0.0285 -0.12425,0.0634 -0.0141,0.0349 -0.33739,0.19326 -0.71839,0.35197 -0.381,0.1587 -0.88736,0.37254 -1.12524,0.47518 -0.79231,0.34187 -2.80527,0.77881 -4.14718,0.90019 -0.1905,0.0172 -0.58882,0.001 -0.88515,-0.0354 z m -6.01904,-2.08509 c -0.98349,-0.63258 -1.83355,-1.41438 -2.99164,-2.75144 -0.84731,-0.97824 -1.53936,-1.88039 -1.91715,-2.49915 -0.15508,-0.254 -0.46784,-0.75622 -0.69502,-1.11606 -0.60237,-0.9541 -1.53304,-2.86823 -1.9273,-3.96394 -0.0762,-0.21166 -0.16897,-0.42522 -0.20623,-0.47456 -0.14064,-0.18624 -0.96827,-2.94023 -1.16428,-3.87422 -1.08257,-5.15849 -0.80513,-10.13852 0.86191,-15.47091 0.36374,-1.1635 1.04327,-2.9165 1.42114,-3.66613 0.15217,-0.30187 0.26385,-0.56165 0.24819,-0.57728 -0.0157,-0.0156 5.95209,6.3e-4 13.26168,0.0361 7.30959,0.0355 13.30124,0.0754 13.31477,0.0888 0.032,0.0314 -0.27505,0.63754 -0.44867,0.88581 -0.074,0.10583 -0.28891,0.46951 -0.47754,0.80818 -0.18864,0.33867 -0.54549,0.96212 -0.79301,1.38545 -0.24753,0.42334 -0.57786,0.99484 -0.73408,1.27 -0.79787,1.40537 -1.26983,2.23096 -1.93604,3.38667 -0.40265,0.6985 -0.88024,1.52977 -1.06132,1.84727 -0.18107,0.3175 -0.51109,0.889 -0.73337,1.27 -0.22228,0.381 -0.62073,1.07373 -0.88545,1.5394 -0.26471,0.46567 -0.88013,1.53939 -1.36759,2.38606 -0.48746,0.84667 -1.01241,1.76453 -1.16655,2.0397 -0.15414,0.27516 -0.4313,0.76007 -0.61591,1.07757 -0.35653,0.61318 -0.99132,1.71404 -1.46464,2.54 -0.15768,0.27517 -0.50502,0.88131 -0.77187,1.34697 -0.26685,0.46567 -0.67889,1.18342 -0.91566,1.595 -0.23676,0.41159 -0.55434,0.96577 -0.70572,1.23152 -0.15139,0.26575 -0.46645,0.81223 -0.70014,1.21439 -0.23369,0.40217 -0.63291,1.0949 -0.88716,1.5394 -2.07131,3.6213 -2.07049,3.61988 -3.19417,5.54181 -0.23513,0.40217 -0.51775,0.91061 -0.62803,1.12986 -0.11028,0.21925 -0.23061,0.41724 -0.2674,0.43998 -0.0368,0.0227 -0.24007,-0.0701 -0.45175,-0.20622 z m 41.1304,-4.09921 c -2.00952,-0.14562 -2.304,-0.18789 -5.09318,-0.73113 -1.38528,-0.2698 -1.94847,-0.41303 -3.38667,-0.86134 -1.59143,-0.49606 -1.42275,-0.3513 -2.401,-2.06042 -1.63667,-2.85945 -2.03712,-3.55506 -2.83584,-4.92606 -0.33294,-0.5715 -0.74906,-1.29887 -0.92471,-1.61637 -0.17565,-0.3175 -0.50952,-0.90631 -0.74193,-1.30848 -0.23241,-0.40217 -0.96189,-1.6716 -1.62107,-2.82096 -0.65918,-1.14936 -1.25821,-2.18087 -1.33119,-2.29225 -0.073,-0.11138 -0.11933,-0.21428 -0.10302,-0.22867 0.0163,-0.0144 8.38663,-0.0439 18.60068,-0.0656 17.64084,-0.0375 18.57463,-0.0327 18.6432,0.0954 0.0397,0.0742 0.0544,0.15272 0.0326,0.17451 -0.0218,0.0218 -0.13938,0.72773 -0.2613,1.56876 -0.12192,0.84102 -0.25992,1.685 -0.30666,1.8755 -0.0468,0.1905 -0.0994,0.41563 -0.11692,0.5003 -0.0405,0.19531 -0.64291,2.53975 -0.73176,2.84788 -0.13028,0.45179 -0.83969,2.16662 -1.19247,2.8825 -0.35387,0.71812 -1.20685,2.06729 -1.3764,2.17708 -0.048,0.0311 -0.0662,0.0571 -0.0405,0.0577 0.15384,0.004 -1.27533,1.46385 -1.68792,1.7243 -0.17691,0.11168 -0.32166,0.23726 -0.32166,0.27906 0,0.0418 -0.0298,0.076 -0.0663,0.076 -0.0365,0 -0.33423,0.17664 -0.66169,0.39255 -0.32746,0.2159 -0.94706,0.54681 -1.37688,0.73535 -0.42982,0.18854 -0.89868,0.39671 -1.04191,0.4626 -0.28489,0.13105 -2.19411,0.63162 -2.62594,0.68847 -0.14817,0.0195 -0.39063,0.0667 -0.53879,0.10485 -0.38232,0.0985 -1.53116,0.21834 -2.96202,0.30907 -1.45893,0.0925 -1.7355,0.0893 -3.52874,-0.0406 z m 96.121956,-9.93839 c -2.53359,-0.39895 -4.82547,-2.11886 -5.93668,-4.45513 -0.47663,-1.00208 -0.62319,-1.71763 -0.79543,-3.88361 -1.00406,-12.62601 -1.35385,-30.017374 -0.99929,-49.683952 0.1066,-5.913301 0.19795,-8.354289 0.33563,-8.968874 0.62329,-2.782303 2.78403,-5.193491 5.36594,-5.987902 1.7451,-0.536938 4.0692,-0.38768 5.86544,0.376689 1.73968,0.740301 3.50265,2.536113 4.18812,4.266147 0.50784,1.281714 0.5208,1.382208 0.51103,3.963939 -0.005,1.291167 -0.0481,4.131349 -0.0961,6.311516 -0.048,2.180167 -0.0873,5.989617 -0.0873,8.465446 l -9e-5,4.501506 0.30134,-0.515682 c 1.13573,-1.943526 3.08074,-3.433279 6.00187,-4.597052 2.74469,-1.093484 5.36366,-1.373723 8.55194,-0.91509 3.80595,0.547484 6.61135,1.977028 9.16793,4.671693 1.37982,1.454343 2.32887,2.833017 3.26653,4.745241 0.93726,1.911419 1.4313,3.522181 2.07181,6.754811 0.8426,4.25259 1.21133,7.609224 1.35814,12.363314 0.13088,4.23864 -0.0982,9.76839 -0.46332,11.18473 -0.6837,2.65202 -3.00904,4.90495 -5.84101,5.65911 -0.65318,0.17395 -0.90179,0.19918 -1.97856,0.20076 -1.09571,0.002 -1.3164,-0.0209 -2.00122,-0.20419 -1.55511,-0.41622 -3.04347,-1.35839 -4.11788,-2.60671 -0.87756,-1.01962 -1.44319,-2.15659 -1.70812,-3.43354 -0.17094,-0.82386 -0.16723,-1.86115 0.0192,-5.36495 0.0966,-1.81626 0.0555,-5.39161 -0.0832,-7.23515 -0.29012,-3.8564 -1.30283,-9.606454 -1.89445,-10.756514 -0.13823,-0.26872 -0.35177,-0.27286 -0.83449,-0.0162 -0.63363,0.3369 -1.27502,0.88441 -1.56389,1.33498 -0.44211,0.68959 -2.1,3.990714 -2.82636,5.627724 -1.55105,3.49567 -3.18799,7.9459 -4.37419,11.89182 -1.01224,3.36726 -1.60535,6.04492 -1.97699,8.92542 -0.30233,2.34331 -0.97699,3.7367 -2.52565,5.21628 -1.03477,0.98862 -2.1675,1.62816 -3.53895,1.99811 -0.46184,0.12458 -0.86796,0.16398 -1.86078,0.18051 -0.6985,0.0116 -1.37391,0.005 -1.50091,-0.0152 z m 108.450305,-1.68977 c -0.92336,-0.1397 -1.860132,-0.43523 -2.658181,-0.8386 -1.864891,-0.94258 -3.508451,-2.98083 -4.035612,-5.00474 -0.291402,-1.11877 -0.295297,-1.37051 -0.239028,-15.44912 0.03008,-7.524754 0.02631,-13.680344 -0.0084,-13.679094 -0.03468,0.001 -0.532457,0.0502 -1.106175,0.1088 -2.97637,0.30394 -5.2953208,-0.50592 -7.2002638,-2.514579 -1.453677,-1.532823 -2.124996,-3.238107 -2.116045,-5.375173 0.0093,-2.218872 0.686963,-3.935065 2.17055,-5.496897 0.729114,-0.767567 1.409287,-1.277096 2.262216,-1.694663 1.1790728,-0.577237 1.7709418,-0.692345 4.5930778,-0.893273 0.705859,-0.05026 1.322641,-0.115638 1.370626,-0.145294 0.06283,-0.03883 0.106795,-1.734812 0.157092,-6.059656 0.07438,-6.395662 0.08224,-6.522031 0.477718,-7.680331 0.6769,-1.982546 2.427053,-3.852527 4.420742,-4.723418 1.046815,-0.457273 1.754489,-0.584701 3.220137,-0.579839 1.152226,0.0038 1.395912,0.02782 2.040581,0.200921 0.402652,0.108118 0.9678,0.303453 1.255884,0.434076 2.071897,0.939443 3.826756,2.993127 4.449388,5.207048 0.170834,0.607443 0.173537,0.689291 0.200216,6.061364 0.01487,2.995084 0.04679,5.445607 0.07093,5.445607 0.02414,0 1.295505,-0.1415 2.825261,-0.314445 3.947738,-0.446305 4.973422,-0.395679 6.619346,0.326721 1.937064,0.850183 3.619526,2.635532 4.304207,4.567421 0.2562,0.722893 0.372818,1.317147 0.430397,2.193197 l 0.04803,0.730773 0.217756,-0.54232 c 0.693312,-1.726684 2.124216,-3.310071 3.75024,-4.14988 1.195124,-0.617257 2.009139,-0.784408 4.745464,-0.974439 0.728403,-0.05059 1.357984,-0.11275 1.39907,-0.138142 0.04624,-0.02858 0.103388,-2.377353 0.149987,-6.164194 0.08396,-6.822982 0.07073,-6.657232 0.638259,-7.992915 0.729072,-1.71586 2.084869,-3.184351 3.761951,-4.074645 1.437933,-0.763341 3.382917,-1.047336 5.110079,-0.746144 3.031837,0.528708 5.574639,2.881245 6.372517,5.895693 0.167516,0.632892 0.171534,0.755517 0.197331,6.022906 l 0.02633,5.376862 0.323688,-0.04496 c 0.178028,-0.02473 1.449369,-0.170252 2.825202,-0.32339 3.751444,-0.417557 4.885152,-0.336362 6.516684,0.466716 0.886891,0.436548 1.756252,1.080923 2.450285,1.816166 0.944902,1.001005 1.505146,2.008962 1.857611,3.342096 0.172056,0.65077 0.204545,0.940683 0.211252,1.885103 0.01215,1.710209 -0.292621,2.869344 -1.118839,4.25531 -1.125441,1.887911 -2.853155,3.228741 -4.782411,3.711495 -0.469358,0.117447 -1.398363,0.248337 -2.46303,0.347024 -2.002768,0.185646 -5.20158,0.517596 -5.615642,0.582766 l -0.288637,0.0454 v 11.436496 11.4365 l 0.383281,0.77568 c 0.555363,1.12393 0.703799,1.80065 0.750569,3.42188 0.0554,1.92024 -0.147935,3.0362 -0.794045,4.35803 -0.446454,0.91337 -0.964887,1.58751 -1.847366,2.40221 -1.778732,1.64211 -3.418852,2.46744 -5.381226,2.70792 -2.751689,0.33722 -5.072527,-0.40993 -6.893223,-2.21913 -1.309147,-1.30088 -2.057821,-2.74901 -2.308868,-4.46593 -0.07334,-0.50154 -0.0861,-3.76138 -0.05658,-14.44924 0.02097,-7.590866 0.01725,-13.800866 -0.0083,-13.799986 -0.02552,8.8e-4 -0.519112,0.0496 -1.096877,0.10817 -2.860846,0.29023 -5.184333,-0.46816 -6.988157,-2.280931 -0.752762,-0.756542 -1.171732,-1.329345 -1.585485,-2.167693 -0.454908,-0.921738 -0.634971,-1.577373 -0.745913,-2.715965 l -0.09118,-0.935755 -0.290839,0.694623 c -0.708352,1.691786 -2.083611,3.235178 -3.616273,4.058383 -1.182356,0.635053 -1.829634,0.793255 -4.108198,1.004088 -2.010208,0.186002 -5.266499,0.522152 -5.67265,0.585592 l -0.288636,0.0451 v 11.469084 c 0,11.44492 3.33e-4,11.46955 0.15804,11.69103 0.708417,0.99488 1.152487,3.07268 1.03995,4.8659 -0.154347,2.45943 -0.853868,4.02527 -2.517961,5.6363 -1.627007,1.57513 -3.05825,2.38793 -4.876089,2.76911 -0.595351,0.12484 -2.520877,0.218 -3.001818,0.14524 z m -146.588781,-3.83945 c -2.81771,-0.31628 -5.3601,-0.98216 -7.87999,-2.06387 -1.546,-0.66365 -2.35569,-1.23195 -3.12047,-2.19017 -0.80584,-1.00967 -1.35705,-2.3625 -1.57939,-3.87627 -0.44464,-3.0274 0.34675,-5.42279 2.48283,-7.51504 1.4734,-1.44318 3.21904,-2.20353 5.28642,-2.30261 2.3188,-0.11113 4.18378,0.40665 5.61947,1.56012 l 0.5381,0.43233 1.50091,-0.0393 c 1.04318,-0.0273 1.79432,-0.0906 2.46303,-0.20751 0.97774,-0.17096 2.14251,-0.50945 2.59998,-0.75558 l 0.25241,-0.1358 -0.82968,-0.25097 c -1.42403,-0.43075 -4.85161,-1.62051 -6.17386,-2.14303 -1.42852,-0.56452 -3.88459,-1.70966 -5.16147,-2.40653 -2.39243,-1.30569 -3.83438,-2.57866 -5.21895,-4.607344 -1.11428,-1.63265 -1.84039,-3.32114 -2.14121,-4.97918 -0.19469,-1.07301 -0.19746,-3.911042 -0.005,-4.964545 0.70246,-3.842306 2.65634,-6.970093 6.23131,-9.975126 0.49868,-0.419181 1.22604,-1.03339 1.61636,-1.364909 3.38967,-2.879042 9.73173,-4.643989 15.64638,-4.354269 2.7196,0.133215 5.60862,0.697408 6.90632,1.348727 2.85351,1.432184 4.64416,4.684574 4.29631,7.803477 -0.22469,2.014545 -0.89055,3.484905 -2.16328,4.776928 -2.14613,2.178663 -4.78752,2.929178 -8.12031,2.307271 -1.13641,-0.212058 -2.82779,-0.284695 -3.74757,-0.16094 -0.39417,0.05303 -1.11137,0.197485 -1.59378,0.321 -0.87977,0.225252 -2.16319,0.76106 -2.16319,0.903096 0,0.04172 0.11257,0.100434 0.25015,0.130485 0.3281,0.07166 5.14343,1.664655 6.69837,2.215935 1.66244,0.5894 2.81245,1.08043 4.71239,2.01212 3.25203,1.59472 4.62028,2.62385 6.05947,4.55767 1.539766,2.068964 2.088566,3.408664 2.330586,5.689274 0.42777,4.03094 -0.50778,7.8477 -2.744826,11.19812 -1.01859,1.52554 -2.13047,2.67408 -3.72099,3.84367 -4.01875,2.9552 -7.73548,4.4555 -12.7,5.12651 -1.22463,0.16552 -5.17941,0.20629 -6.42697,0.0662 z m 489.48876,0.0344 c -2.92935,-0.29578 -5.70329,-1.00854 -8.26034,-2.12247 -2.43506,-1.06078 -3.68167,-2.4198 -4.35685,-4.74971 -0.9864,-3.40386 -0.19986,-6.50012 2.24448,-8.83543 1.93272,-1.8465 4.15491,-2.5428 7.07576,-2.21711 1.45706,0.16248 2.66338,0.63639 3.74907,1.47285 l 0.60606,0.46694 1.47212,-0.0443 c 1.53001,-0.046 2.60352,-0.17855 3.58879,-0.44314 0.70155,-0.18839 1.59982,-0.52199 1.65768,-0.61562 0.0233,-0.0377 -0.1237,-0.11003 -0.32661,-0.16081 -0.5393,-0.13497 -4.40991,-1.43946 -5.78395,-1.94934 -2.95001,-1.09469 -6.52253,-2.88883 -8.15245,-4.09421 -1.62224,-1.1997 -3.08323,-2.992544 -4.15075,-5.093514 -0.71959,-1.41623 -1.04578,-2.66614 -1.18774,-4.55132 -0.29415,-3.906185 0.93297,-7.622321 3.54112,-10.723712 0.58687,-0.697852 2.02512,-2.121715 2.74078,-2.713369 0.25345,-0.209528 0.80763,-0.687453 1.23152,-1.062057 2.59184,-2.290494 6.3818,-3.840823 11.03593,-4.514381 4.13477,-0.598394 9.59339,-0.06306 12.0773,1.184432 1.94063,0.974644 3.45187,2.894893 4.03025,5.121022 0.19849,0.763975 0.26425,2.02246 0.15025,2.875577 -0.45911,3.43604 -2.67496,5.902101 -6.1493,6.84367 -0.91144,0.247007 -2.79995,0.242304 -4.09464,-0.0102 -0.79908,-0.155845 -1.20341,-0.188362 -2.38606,-0.191892 -1.53519,-0.0046 -2.19989,0.0868 -3.41545,0.469569 -1.08002,0.340088 -2.07307,0.872085 -1.62787,0.872085 0.16822,0 5.79804,1.866162 7.31393,2.424402 2.50083,0.92096 5.66893,2.44987 7.26578,3.50643 1.80418,1.19373 3.42093,3.04005 4.43127,5.060458 0.69961,1.39902 0.95308,2.62849 1.01875,4.94144 0.0669,2.35734 -0.26434,4.36714 -1.05776,6.41751 -1.16757,3.01723 -2.96646,5.37146 -5.5494,7.26257 -4.03591,2.95491 -7.88428,4.48413 -12.84349,5.1036 -0.87163,0.10888 -5.01523,0.15813 -5.88818,0.07 z m -253.84605,-0.1554 c -2.09931,-0.10043 -3.92965,-0.38793 -6.10094,-0.95832 -2.66497,-0.70007 -5.597453,-2.12463 -7.841263,-3.80916 -1.706987,-1.28152 -3.435382,-2.94159 -4.63424,-4.45104 -2.540858,-3.19913 -4.290791,-7.13788 -5.009093,-11.27445 -0.486639,-2.80248 -0.403308,-6.385364 0.218087,-9.376734 0.753991,-3.629693 2.373069,-7.730151 4.072557,-10.314119 1.625844,-2.471997 2.882987,-4.025884 4.818476,-5.955858 1.991564,-1.985889 3.271326,-2.960273 5.509456,-4.194782 3.48056,-1.919816 6.71371,-2.965627 10.73727,-3.473136 1.01864,-0.128486 4.2623,-0.12922 5.15697,-0.0012 3.45126,0.493979 6.51255,1.628708 9.19655,3.408885 2.39707,1.58987 3.81822,3.217155 5.20087,5.955247 1.21426,2.404639 1.72342,4.471375 1.72632,7.007335 0.004,3.566238 -1.03093,6.706604 -3.04311,9.233274 -0.69857,0.87718 -2.642,2.851 -3.49791,3.552598 -3.06466,2.51214 -6.73834,4.25786 -10.89121,5.17544 -3.80853,0.84151 -7.35694,1.04029 -11.66091,0.65324 l -0.5003,-0.045 0.34636,0.31555 c 0.92129,0.83931 2.17371,1.5138 3.80494,2.04915 1.31385,0.43118 1.96975,0.52878 3.50719,0.52187 3.33572,-0.015 6.18874,-0.7515 7.96354,-2.05578 1.66523,-1.22375 2.95359,-1.66707 4.85191,-1.66952 2.24228,-0.003 4.10646,0.74304 5.66863,2.26825 1.79936,1.75678 2.67504,4.18142 2.38035,6.59086 -0.34677,2.83522 -1.52634,4.55115 -4.46989,6.5024 -3.41646,2.26473 -6.97816,3.53726 -11.54374,4.12437 -0.95971,0.12341 -4.33573,0.3335 -4.65838,0.28989 -0.0423,-0.006 -0.63115,-0.0369 -1.30849,-0.0693 z m -2.19363,-34.633745 c 2.51485,-0.140706 4.39163,-0.442657 6.03037,-0.97021 1.27591,-0.410749 2.45764,-1.037763 2.92115,-1.549926 0.13187,-0.145725 0.12528,-0.154461 -0.23229,-0.307797 -0.95325,-0.408772 -1.91309,-0.536704 -3.03256,-0.404191 -3.06512,0.362819 -5.73867,1.424549 -7.60037,3.018278 -0.1328,0.113683 -0.24145,0.226251 -0.24145,0.250151 0,0.06296 0.54511,0.05378 2.15515,-0.0363 z M -27.307694,123.20347 c -2.03781,-0.2451 -4.68217,-0.96837 -6.39385,-1.74881 -2.26754,-1.03389 -4.96452,-3.56202 -6.58977,-6.17722 -1.26725,-2.03913 -2.04034,-4.6371 -2.7482,-9.23526 -0.42373,-2.75254 -0.51103,-4.48105 -0.4179,-8.274254 0.0819,-3.33727 0.35086,-6.959049 0.83155,-11.199088 0.084,-0.740834 0.18842,-1.913813 0.23206,-2.606621 0.1188,-1.885901 0.32144,-2.7134 0.95706,-3.908242 0.41708,-0.78402 0.85878,-1.365067 1.55465,-2.045068 0.74432,-0.727364 1.25909,-1.093878 2.14501,-1.52725 1.09285,-0.534602 1.89604,-0.713171 3.19424,-0.710159 2.30688,0.0054 4.14343,0.727172 5.72199,2.248909 0.88567,0.853786 1.35672,1.482448 1.82029,2.429339 0.53226,1.087218 0.62486,1.487375 0.6717,2.902709 0.0462,1.395724 -0.0332,2.661708 -0.40213,6.410625 -0.89127,9.057396 -0.93061,14.47089 -0.12062,16.59983 0.24912,0.65478 0.40163,0.80921 0.90161,0.91301 1.11356,0.23117 2.32604,-0.32298 3.78972,-1.73204 1.14021,-1.09767 2.00506,-2.28123 3.00132,-4.10736 1.48847,-2.728354 2.67828,-6.038554 3.32178,-9.241554 0.43947,-2.187507 0.54354,-3.218012 0.61093,-6.049462 0.0672,-2.824613 0.0926,-3.018474 0.54941,-4.203109 0.63922,-1.657564 2.30184,-3.402761 4.01583,-4.215311 2.5578312,-1.212583 5.7064052,-0.974016 8.0764242,0.611948 0.724199,0.484618 1.88086605,1.70067 2.32343705,2.442726 0.439437,0.7368 0.825546,1.723737 1.014369,2.592837 0.118326,0.544622 0.135275,1.180401 0.146709,5.503334 0.0071,2.688167 0.05447,5.649577 0.10523995,6.580907 0.241469,4.42934 0.491999,7.837304 0.822004,11.181724 l 0.191954,1.94536 0.298306,0.4407 c 0.581417,0.85897 0.958745,1.83134 1.171591,3.01919 0.131822,0.73568 0.133957,2.74143 0.0036,3.34819 -0.447561,2.08262 -1.510464,3.6597 -3.41202895,5.06259 -1.88188805,1.38838 -3.48170005,1.97473 -5.13871805,1.88343 -0.650052,-0.0358 -0.931944,-0.10133 -2.027162,-0.47112 -1.565003,-0.5284 -2.283313,-0.85154 -3.0983152,-1.39383 -0.85743,-0.57051 -1.48838,-1.26288 -1.89064,-2.07468 l -0.32439,-0.65464 -0.18005,0.38862 c -0.24492,0.52863 -0.85962,1.10655 -1.92588,1.81064 -2.35799,1.55706 -4.97425,2.61173 -7.64613,3.08231 -0.92668,0.16322 -1.40991,0.20073 -2.84787,0.22108 -0.9525,0.0135 -1.9916,-0.007 -2.3091,-0.0449 z m 279.092104,-0.0487 c -3.02034,-0.21633 -5.86264,-0.99615 -8.15348,-2.23702 -1.55758,-0.84368 -3.48052,-2.31332 -4.62349,-3.53357 -0.49258,-0.52588 -1.05997,-1.27799 -1.82074,-2.41347 -2.767,-4.12985 -4.09847,-8.94738 -3.92487,-14.20091 0.1622,-4.908284 1.32135,-9.473248 3.40711,-13.417881 2.7039,-5.113701 6.58319,-9.377471 11.04031,-12.134527 4.47506,-2.768164 8.72477,-3.989495 13.45831,-3.867806 3.16881,0.08146 5.81362,0.80216 9.13686,2.48975 4.32731,2.197469 7.37649,5.680602 9.08852,10.381976 0.16751,0.459997 0.29414,0.640335 0.86593,1.233185 1.16485,1.207745 1.7538,2.466567 2.08786,4.462573 0.0635,0.379286 0.0941,2.578136 0.10348,7.427576 0.0134,6.925934 0.0384,7.712914 0.31977,10.044554 0.2269,1.88059 0.4172,2.53796 1.01786,3.51618 0.38725,0.63066 0.71698,1.39363 0.90958,2.10471 0.22056,0.81429 0.2043,2.89872 -0.0299,3.83152 -0.58957,2.34829 -2.04555,4.12177 -4.27975,5.21302 -2.47806,1.21036 -5.40083,1.08058 -7.86136,-0.34907 -0.66553,-0.38669 -1.72171,-1.42032 -2.29857,-2.24948 -0.43556,-0.62605 -0.89434,-1.52442 -0.89434,-1.75125 0,-0.0644 -0.0336,-0.11715 -0.0747,-0.11715 -0.0411,0 -0.48462,0.3101 -0.98562,0.68911 -3.27869,2.48035 -7.12188,4.08641 -11.13937,4.65512 -1.64127,0.23234 -3.90207,0.32652 -5.34939,0.22286 z m 3.27968,-16.14838 c 1.83644,-0.35109 3.18013,-1.1159 4.80415,-2.73447 2.06523,-2.05829 3.64014,-4.841494 4.92164,-8.697574 0.2462,-0.74084 0.52717,-1.66111 0.62437,-2.04506 l 0.17674,-0.69809 -0.20559,-0.26955 c -0.28675,-0.37595 -0.69359,-1.285846 -0.94154,-2.105788 -0.11522,-0.381 -0.2958,-0.864051 -0.4013,-1.073446 -0.4055,-0.804843 -1.41131,-1.55621 -2.63116,-1.965556 -0.57714,-0.193671 -1.52776,-0.228373 -2.17044,-0.07923 -0.45323,0.105178 -1.38475,0.5356 -2.10716,0.973637 -0.254,0.154015 -0.66963,0.402301 -0.92363,0.551746 -1.07286,0.631234 -2.4416,1.877409 -3.4403,3.132248 -1.39633,1.75442 -2.52136,4.14306 -3.09957,6.58091 -0.28168,1.18762 -0.35712,1.837803 -0.35276,3.040303 0.006,1.74359 0.34975,3.01217 1.16649,4.30895 0.34415,0.54642 0.4663,0.67529 0.79574,0.8395 0.34977,0.17434 0.70335,0.28154 1.27433,0.38635 0.3507,0.0644 1.87589,-0.0237 2.50999,-0.14488 z m -107.8585,15.54659 c -0.9147,-0.14001 -2.00399,-0.50563 -2.65637,-0.89159 -1.91866,-1.13513 -3.30667,-2.93622 -3.83917,-4.98175 -0.16054,-0.61669 -0.16876,-0.76444 -0.37766,-6.78893 -0.24327,-7.01539 -0.7901,-13.631764 -1.53627,-18.588185 -0.18559,-1.232755 -0.25643,-1.528908 -0.4511,-1.885758 -0.34835,-0.638563 -0.67694,-1.649348 -0.82604,-2.541035 -0.31812,-1.902509 0.11701,-4.024893 1.20498,-5.877433 1.01257,-1.724159 1.82318,-2.542475 3.20251,-3.232938 1.64735,-0.824634 4.32664,-1.123356 5.94708,-0.663059 1.28238,0.364269 2.70926,1.233114 3.78258,2.303275 0.8832,0.880595 1.8143,2.505939 1.97141,3.441326 l 0.059,0.351218 0.46181,-0.68051 c 3.34974,-4.935983 7.85326,-8.289434 12.73849,-9.485442 2.89801,-0.709495 5.55855,-0.793854 7.73123,-0.245139 1.56609,0.395522 2.69715,1.036529 3.70954,2.102304 0.6443,0.67828 1.06705,1.359419 1.497,2.411951 1.29335,3.166173 1.05041,6.018023 -0.74453,8.740177 -0.48241,0.731613 -1.76212,2.013477 -2.48184,2.486015 -1.06872,0.701671 -2.58373,1.256762 -3.91706,1.435185 -1.18932,0.159151 -2.98991,-0.01771 -3.64872,-0.3584 -0.22905,-0.118447 -0.23986,-0.115123 -0.66967,0.205931 -1.95465,1.46006 -4.05208,4.306533 -6.11891,8.304153 -2.84429,5.501324 -4.70754,11.047164 -5.67455,16.889914 -0.13267,0.80161 -0.34375,1.77143 -0.46906,2.15515 -0.84448,2.58591 -2.9782,4.60232 -5.59238,5.28492 -0.78329,0.20453 -2.34111,0.25579 -3.3023,0.10865 z m -333.321,-0.2509 c -3.89749,-0.0122 -6.44622,-0.0484 -6.44622,-0.0915 0,-0.0393 0.1,-0.23824 0.2221,-0.44214 0.21513,-0.3591 0.53079,-0.90546 1.54821,-2.67981 0.26701,-0.46567 0.67512,-1.17571 0.9069,-1.57788 0.23178,-0.40216 0.55033,-0.95635 0.70789,-1.23151 0.15756,-0.27517 0.48561,-0.84667 0.72899,-1.27 0.24339,-0.42334 0.65107,-1.13338 0.90596,-1.57788 0.25489,-0.4445 0.59333,-1.03332 0.75208,-1.30849 0.78461,-1.35993 1.17248,-2.03445 1.61553,-2.80939 0.26622,-0.46567 0.5967,-1.03717 0.73439,-1.27 0.13769,-0.23283 0.40481,-0.70043 0.5936,-1.03909 0.1888,-0.33867 0.52744,-0.92749 0.75254,-1.30849 0.2251,-0.381 0.55382,-0.9525 0.7305,-1.27 0.29623,-0.53236 1.53892,-2.69941 3.00138,-5.233944 0.32976,-0.5715 0.79663,-1.38545 1.03747,-1.80878 0.64314,-1.13044 0.72826,-1.26898 0.78001,-1.26952 0.0258,-2.7e-4 0.72547,0.64063 1.5548,1.42422 1.69972,1.60597 3.55919,3.558354 4.91084,5.156204 0.50135,0.59267 1.04046,1.2238 1.19802,1.40251 0.15757,0.17871 0.32287,0.38802 0.36733,0.46514 0.0445,0.0771 0.23095,0.34031 0.4144,0.58487 0.35495,0.4732 1.93706,2.81769 1.93706,2.87049 0,0.0173 0.15197,0.26403 0.33772,0.54842 0.40851,0.62545 1.28994,2.26432 1.72951,3.21573 0.32634,0.70633 0.96155,2.40186 1.12835,3.01182 0.1064,0.3891 0.30148,1.32429 0.4335,2.07818 0.22211,1.26829 0.2407,1.51164 0.24873,3.25648 0.006,1.40587 -0.0164,1.92983 -0.09,2.05894 l -0.0987,0.17318 -8.09835,-0.0188 c -4.45409,-0.0103 -10.99915,-0.0279 -14.54456,-0.0389 z m 490.20072,-1.14303 c -1.14198,-0.10962 -1.87361,-0.22023 -2.57848,-0.38981 -2.65775,-0.63943 -4.88948,-1.97222 -7.08548,-4.23147 -1.5003,-1.5435 -2.5078,-2.96564 -3.42761,-4.83827 -0.70633,-1.43801 -0.93808,-2.07334 -1.41492,-3.87891 -0.91385,-3.46033 -1.48397,-6.90817 -1.78317,-10.783824 -0.11805,-1.52919 -0.1176,-5.919951 7.7e-4,-7.46606 0.29659,-3.873997 1.09259,-8.642207 1.70895,-10.23697 0.79457,-2.055887 2.87518,-3.869424 5.26661,-4.590582 0.63181,-0.190529 0.80779,-0.209344 2.00121,-0.213972 1.47671,-0.0057 2.09177,0.110789 3.33745,0.632241 2.24443,0.939536 4.02425,3.058103 4.64489,5.52894 0.14178,0.56443 0.17162,0.896966 0.17179,1.914585 2e-4,1.125353 -0.0243,1.347631 -0.28381,2.578485 -0.61825,2.931898 -0.84877,5.136136 -0.85325,8.158793 -0.004,2.65132 0.17987,4.73879 0.64144,7.284834 0.19965,1.10131 0.63041,2.95244 0.6867,2.95099 0.0904,-0.002 1.09315,-1.76101 1.53532,-2.69279 0.94042,-1.981704 1.73966,-4.491874 2.31411,-7.267884 0.35247,-1.70335 0.73915,-4.310812 0.81126,-5.470609 0.0953,-1.53225 0.35051,-3.706346 0.49724,-4.235386 0.3466,-1.249725 1.0002,-2.340751 2.00561,-3.347903 1.50594,-1.508537 3.28647,-2.32414 5.31155,-2.433048 1.53188,-0.08238 3.28109,0.338381 4.56094,1.09711 1.21356,0.719433 2.67597,2.376548 3.25725,3.690933 0.30989,0.700707 0.55962,1.665925 0.64415,2.489593 0.0776,0.755863 -0.005,2.403709 -0.22351,4.470519 -0.10005,0.945535 -0.10056,4.262851 -8.8e-4,5.695761 0.1407,2.02245 0.51165,4.533714 0.89252,6.042124 0.15931,0.63094 0.80991,2.46149 0.91065,2.56222 0.0885,0.0885 0.77975,-0.39716 1.27962,-0.89894 0.64828,-0.65076 1.11258,-1.30728 1.91481,-2.70754 1.32709,-2.316404 1.99308,-4.967474 2.24165,-8.923324 0.18971,-3.019065 -0.10883,-6.295205 -0.82626,-9.067045 -0.22457,-0.867648 -0.27994,-1.238565 -0.31251,-2.09356 -0.0483,-1.267982 0.083,-2.073342 0.52094,-3.194242 0.98304,-2.516269 2.85221,-4.194578 5.49912,-4.937608 0.69984,-0.196456 0.88496,-0.216215 2.0397,-0.217714 0.98675,-0.0013 1.38129,0.02906 1.769,0.136052 1.39686,0.385468 2.70022,1.106321 3.71727,2.055936 1.64151,1.532654 2.17472,2.778303 2.93232,6.850304 0.62103,3.337988 0.8514,6.109429 0.79653,9.582728 -0.0393,2.488959 -0.15172,3.988859 -0.44702,5.965149 -0.68235,4.566604 -1.59518,7.379534 -3.51392,10.828294 -1.72417,3.09903 -3.18457,5.14512 -5.06045,7.08992 -3.04995,3.16201 -6.21743,4.89812 -10.08434,5.52727 -1.1618,0.18903 -3.66611,0.19187 -4.84909,0.006 -3.12472,-0.49225 -5.53604,-1.60706 -7.88496,-3.64539 -0.93323,-0.80983 -1.29874,-1.24543 -1.38051,-1.64525 l -0.0513,-0.25092 -0.68976,0.87816 c -2.4556,3.12633 -5.43643,5.04611 -8.58163,5.52693 -0.58243,0.089 -2.13179,0.15852 -2.57849,0.11564 z M -190.382,114.60511 c -0.21323,-0.37042 -0.57073,-0.98522 -0.79445,-1.36622 -0.40575,-0.69101 -0.5354,-0.91539 -1.95703,-3.38666 -0.414,-0.71967 -0.84754,-1.46435 -0.96343,-1.65485 -0.11589,-0.1905 -0.42914,-0.72737 -0.6961,-1.19303 -0.26697,-0.46567 -0.66622,-1.1584 -0.88723,-1.5394 -0.22101,-0.381 -0.60233,-1.03909 -0.84737,-1.46242 -0.24504,-0.42333 -0.5574,-0.9602 -0.69412,-1.19303 -0.30279,-0.51561 -1.53371,-2.63885 -2.52117,-4.348794 -0.17112,-0.29633 -0.47352,-0.81588 -0.67198,-1.15454 -0.19846,-0.33867 -0.55971,-0.96213 -0.80277,-1.38546 -0.65911,-1.14796 -1.39205,-2.41819 -1.62104,-2.80939 -1.64651,-2.81284 -1.74073,-2.986235 -1.65228,-3.040896 0.17989,-0.111178 2.10947,-0.388329 5.07904,-0.729516 1.61653,-0.18573 5.6685,-0.166026 7.47128,0.03633 1.08614,0.121918 3.51147,0.560836 4.22812,0.765172 2.40067,0.684507 4.5833,1.671089 6.20931,2.806699 0.40051,0.27971 0.94237,0.65605 1.20414,0.8363 0.26177,0.18025 0.53345,0.39672 0.60373,0.48106 0.0703,0.0843 0.15188,0.15333 0.18131,0.15333 0.0567,0 0.34786,0.23413 0.83106,0.6683 l 0.2935,0.26372 -0.3638,0.63081 c -0.20009,0.34694 -0.52555,0.9079 -0.72325,1.24657 -0.1977,0.33866 -0.75125,1.29116 -1.2301,2.11666 -0.47886,0.825495 -1.05181,1.812635 -1.27323,2.193635 -0.22143,0.381 -0.61205,1.05641 -0.86805,1.50091 -0.256,0.4445 -0.55644,0.96404 -0.66765,1.15454 -0.3542,0.60676 -1.07832,1.85847 -1.58072,2.73243 -0.26769,0.46567 -0.65002,1.12376 -0.84963,1.46242 -0.51037,0.86594 -1.04481,1.78517 -1.61102,2.77091 -0.54134,0.94245 -1.20669,2.09036 -1.44992,2.50152 -0.0877,0.14816 -0.32586,0.57212 -0.52935,0.94212 -0.20348,0.37 -0.3898,0.67307 -0.41404,0.67348 -0.0242,4.2e-4 -0.21852,-0.30231 -0.43176,-0.67271 z m -38.81643,-5.64455 c 4.2e-4,-0.0599 0.15334,-0.36871 0.33981,-0.68621 0.18648,-0.3175 0.48558,-0.83705 0.66466,-1.15455 0.17908,-0.3175 0.34865,-0.59459 0.37684,-0.61575 0.0282,-0.0212 0.24677,-0.3329 0.48577,-0.69273 0.77516,-1.16712 1.01201,-1.4998 1.11236,-1.56246 0.0542,-0.0339 0.0986,-0.0945 0.0986,-0.1347 0,-0.0402 0.0529,-0.13376 0.11766,-0.20784 0.0647,-0.0741 0.39664,-0.48106 0.73762,-0.9044 1.75496,-2.1788 4.55615,-4.911344 6.46531,-6.306884 3.86009,-2.82161 6.47775,-4.24243 10.09952,-5.481822 1.25034,-0.427876 2.89654,-0.883965 2.98755,-0.827719 0.0527,0.03257 0.52453,0.823714 1.3732,2.302481 1.17272,2.04341 1.82389,3.17112 2.32284,4.02274 0.20496,0.34983 0.37266,0.65349 0.37266,0.67479 0,0.0213 0.1512,0.28925 0.336,0.59545 0.18481,0.3062 0.47336,0.79918 0.64123,1.09551 0.16787,0.29633 0.66415,1.162244 1.10286,1.924244 0.4387,0.762 0.92317,1.61059 1.0766,1.88576 0.15343,0.27517 0.47032,0.82935 0.7042,1.23151 0.23388,0.40217 0.62664,1.07758 0.8728,1.50091 0.61577,1.05897 1.3177,2.2916 1.6327,2.86712 l 0.2633,0.48107 h -7.61239 c -4.18681,0 -11.8784,0.023 -17.09242,0.0512 -8.1476,0.044 -9.47992,0.0359 -9.47926,-0.0577 z m -5.34272,-8.00902 c -4.88921,-0.62737 -10.31409,-3.499374 -14.73659,-7.801744 -3.11776,-3.033062 -5.14515,-5.972061 -6.54702,-9.490828 -0.83835,-2.104296 -1.21201,-4.097688 -1.14012,-6.082336 0.0552,-1.524932 0.36387,-2.847216 0.8936,-3.82844 l 0.21059,-0.390089 -0.64965,-0.687487 c -0.96282,-1.018898 -2.15573,-2.535113 -3.05402,-3.88173 -1.40662,-2.108658 -1.63681,-2.841075 -1.08287,-3.445524 0.24702,-0.269549 0.29174,-0.287506 0.71599,-0.287506 0.59823,0 1.15087,0.281462 2.45351,1.249576 1.29405,0.961731 2.27986,1.796789 3.63322,3.077632 l 1.10104,1.042049 0.36138,-0.194653 c 0.43242,-0.23292 1.37163,-0.534612 2.25678,-0.724921 0.99115,-0.2131 3.47236,-0.193864 4.76252,0.03692 2.19708,0.393021 3.9296,0.978169 6.19602,2.092669 1.76588,0.868365 3.13009,1.70168 4.68385,2.861094 6.94171,5.179864 11.37387,12.822474 10.89449,18.785972 -0.33057,4.11235 -2.89817,6.909036 -6.98447,7.607626 -0.94592,0.16171 -2.94647,0.19282 -3.96825,0.0617 z m 62.65858,-5.840974 c -2.72987,-0.43223 -4.78361,-1.90942 -6.07506,-4.369581 -2.28947,-4.361351 -1.62573,-11.166861 1.71972,-17.632839 1.53109,-2.959249 3.34411,-5.42595 5.67679,-7.723542 1.33733,-1.317216 2.39634,-2.191683 3.66889,-3.02954 3.58003,-2.357131 7.14551,-3.204115 10.15921,-2.413332 0.33824,0.08875 0.6543,0.194002 0.70236,0.233891 0.0608,0.05042 0.27972,-0.197861 0.71857,-0.814816 1.7395,-2.445464 3.48738,-4.355536 4.39175,-4.799271 0.63927,-0.313662 1.17311,-0.37973 1.53324,-0.189754 0.64941,0.342576 0.76264,0.925954 0.39354,2.027629 -0.41068,1.225799 -2.39257,5.134119 -3.13227,6.176903 l -0.26128,0.368337 0.1838,0.24742 c 1.08749,1.463868 1.89951,4.404021 1.89739,6.870093 -0.007,7.988099 -5.07504,17.313524 -12.0451,22.162962 -1.93002,1.34281 -3.85514,2.21911 -5.92667,2.69778 -0.94887,0.21926 -2.79754,0.31549 -3.60488,0.18766 z m -44.98734,-10.010383 c -1.88342,-0.172187 -4.03733,-0.979645 -5.9408,-2.227091 -5.64023,-3.696327 -9.919,-11.20125 -10.81639,-18.971832 -0.14767,-1.278679 -0.16815,-3.735498 -0.0408,-4.887576 0.44979,-4.067331 1.98723,-7.303612 4.40706,-9.276759 l 0.28478,-0.232208 -0.29864,-0.628722 c -1.03403,-2.176908 -1.80422,-5.526956 -1.548,-6.733171 0.23137,-1.089241 1.07346,-1.573967 1.97565,-1.137226 1.00383,0.485945 2.6218,2.6808 4.01224,5.442782 l 0.66841,1.327727 h 0.77971 c 3.15346,0 6.73001,1.76698 9.7868,4.835131 7.12038,7.146851 9.91715,19.421823 6.14195,26.95699 -1.93135,3.854921 -5.40753,5.898058 -9.41202,5.531955 z m 22.46101,-0.447565 c -1.82909,-0.405001 -3.48777,-1.451236 -4.83275,-3.048326 -2.04104,-2.423632 -3.29734,-5.648566 -3.83797,-9.852122 -0.19515,-1.517419 -0.19547,-5.230667 -5.7e-4,-6.81105 0.18709,-1.517112 0.39292,-2.676822 0.71049,-4.003193 1.80613,-7.543333 6.07177,-13.38407 10.93401,-14.97142 0.63645,-0.207778 1.84096,-0.431091 1.99871,-0.370556 0.12988,0.04984 0.15146,9.7e-5 0.45038,-1.038443 0.55873,-1.941186 1.8277,-4.837689 2.54255,-5.803554 0.79152,-1.069451 1.97559,-0.74929 2.28543,0.61796 0.14289,0.630576 0.11914,3.179566 -0.0425,4.555708 -0.14658,1.248201 -0.32782,2.489984 -0.40148,2.750732 -0.0356,0.126021 -0.0102,0.18642 0.0948,0.225061 0.22968,0.08458 1.0296,0.71985 1.50509,1.195302 2.28954,2.289355 3.816,5.869024 4.42468,10.376179 0.19974,1.479052 0.19905,5.569082 -10e-4,7.119698 -0.7278,5.635545 -2.56645,10.416643 -5.43159,14.12394 -0.99768,1.290934 -2.63568,2.804003 -3.89415,3.597138 -0.66875,0.421473 -1.97434,1.001868 -2.73242,1.214691 -1.0063,0.282503 -2.78709,0.340229 -3.77152,0.122255 z"/></g></svg>