<?xml version="1.0" encoding="UTF-8" standalone="no"?>
<!-- Created with Inkscape (http://www.inkscape.org/) -->

<svg
   width="197.48505mm"
   height="19.5707mm"
   viewBox="0 0 197.48505 19.5707"
   version="1.1"
   id="svg1"
   xmlns="http://www.w3.org/2000/svg"
   xmlns:svg="http://www.w3.org/2000/svg">
  <defs
     id="defs1" />
  <g
     id="layer1"
     transform="translate(32.396757,-76.041795)">
    <path
       style="font-size:25.4px;font-family:'LIBRARY 3 AM';-inkscape-font-specification:'LIBRARY 3 AM';fill:#ffffff;stroke-width:2.11666"
       d="m -23.951257,82.963295 -0.3556,1.0033 c 3.048,1.2573 4.4069,3.1623 4.4069,6.0325 0,3.4036 -2.8956,4.5466 -5.8674,4.5466 -1.8796,0 -3.5052,-0.3683 -5.2959,-1.2192 l 0.5461,-1.4478 c 1.7399,0.8128 3.3401,1.2192 4.7498,1.2192 3.7211,0 4.2672,-1.9431 4.2672,-3.0988 0,-3.0226 -2.0193,-3.9624 -3.7846,-4.9149 -1.3843,-0.7493 -2.6162,-1.3843 -2.6162,-3.3401 0,-1.3462 0.9779,-2.1209 2.8702,-2.1209 1.4859,0 2.8575,0.4318 4.4069,1.2319 l 1.27,-3.4544 c -1.6002,-0.8128 -2.7305,-1.3589 -5.6896,-1.3589 -3.5179,0 -6.5913,1.9304 -6.5913,5.715 0,2.9464 1.4986,5.0419 4.2037,6.2611 l 0.3683,-1.0033 c -1.9685,-0.9017 -3.5052,-2.4892 -3.5052,-5.2578 0,-3.0861 2.4892,-4.6482 5.5245,-4.6482 2.3368,0 3.2258,0.3175 4.3561,0.8255 l -0.5334,1.4605 c -1.3589,-0.5715 -2.5654,-0.8382 -3.81,-0.8382 -2.8194,0 -3.937,1.5494 -3.937,3.1877 0,2.4892 1.5621,3.4163 3.1496,4.2672 1.6129,0.8763 3.2512,1.5367 3.2512,3.9878 0,1.4224 -1.143,2.032 -3.2004,2.032 -1.7272,0 -3.5941,-0.7112 -5.334,-1.6256 l -1.2954,3.4417 c 1.905,1.0287 3.9497,1.7653 6.6294,1.7653 4.0259,0 6.9342,-1.905 6.9342,-5.6134 0,-3.5052 -1.8034,-5.6896 -5.1181,-7.0358 z m 19.9770998,-6.6421 v 7.239 h -9.6646998 v -6.1722 h 1.6002 v 4.7244 h 1.0668 v -5.7912 h -3.7338 v 8.3058 h 11.7982998 v -7.239 h 1.6002 v 16.891 h -1.6002 v -8.2042 H -14.705657 v 9.271 h 3.7338 v -6.7564 h -1.0668 v 5.6896 h -1.6002 v -7.1374 h 9.6646998 v 8.2042 h 3.73379998 v -19.0246 z m 19.5453172,0 v 11.6459 c 0,1.6891 -0.4445,2.8448 -1.3589,3.4925 v 1.2192 c 1.27,-0.5715 2.4257,-1.8796 2.4257,-4.7117 v -10.5791 h 1.600199 v 10.5791 c 0,2.3241 -0.749299,6.2865 -5.626099,6.5659 v -2.5273 c -0.1778,0.0127 -0.3429,0.0254 -0.5334,0.0254 -2.3749004,0 -3.5052004,-1.3716 -3.5052004,-4.064 v -11.6459 H 4.8396597 v 11.6459 c 0,3.6957 1.6383,6.5532 5.1053999,7.4168 v -1.1049 c -3.3400999,-0.9906 -4.0385999,-4.0132 -4.0385999,-6.3119 v -10.5791 h 1.6002 v 10.5791 c 0,4.0259 2.3621999,5.0038 4.0386003,5.1054 v 2.5273 c 0.1778,0.0127 0.3556,0.0127 0.5334,0.0127 4.9403,0 7.226299,-3.2766 7.226299,-7.6454 v -11.6459 z m 14.859018,0 v 17.9578 h -1.6002 v -17.9578 h -6.0325 v 3.5814 h 3.3655 v -1.0668 h -2.2987 v -1.4478 h 3.8989 v 17.9578 h 3.7338 v -17.9578 h 3.8862 v 1.4478 h -2.286 v 1.0668 h 3.3528 v -3.5814 z m 16.192475,0 v 17.9578 h -1.6002 v -17.9578 h -6.0325 v 3.5814 h 3.3655 v -1.0668 h -2.2987 v -1.4478 h 3.8989 v 17.9578 h 3.7338 v -17.9578 h 3.886199 v 1.4478 h -2.285999 v 1.0668 h 3.352799 v -3.5814 z m 13.246079,15.4432 v -7.1247 h 6.5024 v 1.4478 h -4.9022 v 1.0668 h 5.969 v -3.5814 h -8.636 v 9.2583 h 8.0391 v 1.4478 h -9.639299 v -16.891 h 9.461499 v 1.4478 h -7.8613 v 3.2893 h 1.0668 v -2.2225 h 7.8613 v -3.5814 H 56.134933 v 19.0246 h 11.772899 v -3.5814 z m 19.050004,-15.4432 h -6.5659 v 19.0246 h 3.7338 v -8.5725 l 6.2865,8.5725 h 4.546599 l -6.921499,-9.3345 c 1.9431,-0.2794 3.073399,-1.6383 3.073399,-3.6576 0,-2.1336 -1.549399,-3.5179 -3.962399,-3.5179 h -4.0894 v 4.7498 h 1.0668 v -3.683 h 3.0226 c 1.7653,0 2.8956,0.8509 2.8956,2.4511 0,1.4224 -0.6731,2.6797 -3.0226,2.6797 h -1.0414 l 6.857999,9.2456 h -1.8796 l -6.794499,-9.2456 h -1.1049 v 9.2456 h -1.6002 v -16.891 h 5.4991 c 3.4798,0 5.753099,1.905 5.753099,4.9657 0,1.905 -0.7366,3.3909 -2.336799,4.3307 l 0.622299,0.8509 c 1.778,-1.0033 2.7813,-2.8702 2.7813,-5.1816 0,-3.3782 -2.4384,-6.0325 -6.819899,-6.0325 z m 17.843495,0 h -6.5786 v 19.0246 h 3.7338 v -8.9154 h 3.0226 c 2.4765,0 3.911599,-1.4097 3.911599,-3.8735 0,-2.2987 -1.435099,-3.7211 -3.733799,-3.7211 h -4.2672 v 5.08 h 1.0668 v -4.0132 h 3.2004 c 1.7145,0 2.667,0.9652 2.667,2.6543 0,1.524 -0.6477,2.8067 -2.8448,2.8067 h -4.0894 v 8.9154 h -1.6002 v -16.891 h 5.5118 c 5.130799,0 5.689599,3.6068 5.689599,5.1689 0,3.2004 -1.9685,5.3213 -5.219699,5.3213 h -1.7145 v 1.0668 h 1.7145 c 4.000499,0 6.286499,-2.7559 6.286499,-6.3881 0,-3.2893 -1.9685,-6.2357 -6.756399,-6.2357 z m 18.999209,0 h -3.7338 l -4.2799,11.7729 h 9.5504 l -3.4036,-9.3599 -2.4892,6.8453 h 1.1303 l 1.3589,-3.7211 1.8796,5.1689 h -6.5024 l 3.5052,-9.6393 h 2.2352 l 6.1468,16.891 h -1.6256 l -1.7145,-4.7371 h -10.6045 l -2.1082,5.8039 h 3.8862 l 1.1938,-3.2893 h -1.1303 l -0.8128,2.2225 h -1.6129 l 1.3335,-3.6703 h 9.1059 l 1.7145,4.7371 h 3.8989 z m 30.36573,0 -5.0546,13.2715 -5.0546,-13.2715 h -3.9497 l 3.7338,9.7917 -3.1115,8.1661 h -2.0066 l -6.4516,-16.891 h 1.6637 l 5.7912,15.2019 2.4638,-6.477 -0.5715,-1.4986 -1.8923,4.9784 -5.0546,-13.2715 h -3.9497 l 7.2644,19.0246 h 3.4798 l 3.5179,-9.2329 -3.3274,-8.7249 h 1.6637 l 5.7912,15.2019 5.7912,-15.2019 h 1.6637 l -6.4516,16.891 h -2.0066 l -2.2987,-6.0071 -0.5715,1.4986 2.1336,5.5753 h 3.4798 l 7.2644,-19.0246 z m 13.84301,6.6421 -0.3556,1.0033 c 3.048,1.2573 4.4069,3.1623 4.4069,6.0325 0,1.4351 -0.5207,2.5781 -1.5367,3.3528 -1.0287,0.7747 -2.5273,1.1938 -4.3307,1.1938 -1.8796,0 -3.5052,-0.3683 -5.2959,-1.2192 l 0.5461,-1.4478 c 1.7399,0.8128 3.3401,1.2192 4.7498,1.2192 3.7211,0 4.2672,-1.9431 4.2672,-3.0988 0,-3.0226 -2.0193,-3.9624 -3.7846,-4.9149 -1.3843,-0.7493 -2.6162,-1.3843 -2.6162,-3.3401 0,-1.3462 0.9779,-2.1209 2.8702,-2.1209 1.4859,0 2.8575,0.4318 4.4069,1.2319 l 1.27,-3.4544 c -1.6002,-0.8128 -2.7305,-1.3589 -5.6896,-1.3589 -3.5179,0 -6.5913,1.9304 -6.5913,5.715 0,2.9464 1.4986,5.0419 4.2037,6.2611 l 0.3683,-1.0033 c -1.9685,-0.9017 -3.5052,-2.4892 -3.5052,-5.2578 0,-3.0861 2.4892,-4.6482 5.5245,-4.6482 2.3368,0 3.2258,0.3175 4.3561,0.8255 l -0.5334,1.4605 c -1.3589,-0.5715 -2.5654,-0.8382 -3.81,-0.8382 -2.8194,0 -3.937,1.5494 -3.937,3.1877 0,2.4892 1.5621,3.4163 3.1496,4.2672 1.6129,0.8763 3.2512,1.5367 3.2512,3.9878 0,1.4224 -1.143,2.032 -3.2004,2.032 -1.7272,0 -3.5941,-0.7112 -5.334,-1.6256 l -1.2954,3.4417 c 1.905,1.0287 3.9497,1.7653 6.6294,1.7653 4.0259,0 6.9342,-1.905 6.9342,-5.6134 0,-3.5052 -1.8034,-5.6896 -5.1181,-7.0358 z"
       id="text1"
       aria-label="Shutterpaws" />
  </g>
</svg>
