<svg xmlns="http://www.w3.org/2000/svg" width="746.4" height="73.968" viewBox="0 0 197.485 19.571"><path d="m-23.951 82.963-.356 1.004c3.048 1.257 4.407 3.162 4.407 6.032 0 3.404-2.896 4.547-5.867 4.547-1.88 0-3.506-.369-5.296-1.22l.546-1.447c1.74.812 3.34 1.219 4.75 1.219 3.72 0 4.267-1.943 4.267-3.099 0-3.023-2.02-3.962-3.785-4.915-1.384-.75-2.616-1.384-2.616-3.34 0-1.346.978-2.12 2.87-2.12 1.486 0 2.858.431 4.407 1.231l1.27-3.454c-1.6-.813-2.73-1.36-5.69-1.36-3.517 0-6.59 1.931-6.59 5.716 0 2.946 1.498 5.042 4.203 6.26l.368-1.002c-1.968-.902-3.505-2.49-3.505-5.258 0-3.086 2.49-4.648 5.525-4.648 2.336 0 3.225.317 4.356.825l-.534 1.46c-1.359-.57-2.565-.838-3.81-.838-2.82 0-3.937 1.55-3.937 3.188 0 2.49 1.562 3.416 3.15 4.267 1.613.877 3.251 1.537 3.251 3.988 0 1.422-1.143 2.032-3.2 2.032-1.728 0-3.594-.711-5.334-1.626l-1.296 3.442c1.905 1.029 3.95 1.765 6.63 1.765 4.026 0 6.934-1.905 6.934-5.613 0-3.505-1.804-5.69-5.118-7.036m19.977-6.642v7.24h-9.665v-6.173h1.6v4.724h1.067v-5.79h-3.734v8.305h11.799v-7.239h1.6v16.891h-1.6v-8.204h-11.799v9.27h3.734V88.59h-1.067v5.69h-1.6v-7.137h9.665v8.204H-.24V76.32zm19.545 0v11.646c0 1.69-.444 2.845-1.359 3.493v1.219c1.27-.572 2.426-1.88 2.426-4.712V77.388h1.6v10.58c0 2.323-.75 6.286-5.626 6.565v-2.527c-.178.012-.343.025-.533.025-2.375 0-3.506-1.372-3.506-4.064V76.321H4.84v11.646c0 3.696 1.638 6.553 5.105 7.417v-1.105c-3.34-.99-4.039-4.013-4.039-6.312V77.388h1.6v10.58c0 4.025 2.363 5.003 4.04 5.104V95.6c.177.012.355.012.533.012 4.94 0 7.226-3.276 7.226-7.645V76.321zm14.86 0V94.28H28.83V76.321h-6.033v3.582h3.366v-1.067h-2.299v-1.448h3.9v17.958h3.733V77.388h3.886v1.448h-2.286v1.067h3.353V76.32zm16.192 0V94.28h-1.6V76.321H38.99v3.582h3.365v-1.067h-2.298v-1.448h3.899v17.958h3.733V77.388h3.887v1.448H49.29v1.067h3.352V76.32zm13.246 15.443V84.64h6.502v1.447H61.47v1.067h5.969v-3.581h-8.636v9.258h8.039v1.448h-9.64V77.388h9.462v1.448h-7.861v3.29h1.067v-2.223h7.861V76.32H56.135v19.025h11.773v-3.582zm19.05-15.443h-6.566v19.025h3.734v-8.573l6.286 8.573h4.547l-6.922-9.335c1.943-.28 3.074-1.638 3.074-3.657 0-2.134-1.55-3.518-3.963-3.518h-4.09v4.75h1.068v-3.683h3.022c1.766 0 2.896.85 2.896 2.45 0 1.423-.673 2.68-3.023 2.68h-1.041l6.858 9.246h-1.88l-6.794-9.246H75.02v9.246h-1.6V77.388h5.499c3.48 0 5.753 1.905 5.753 4.966 0 1.905-.737 3.39-2.337 4.33l.622.851c1.778-1.003 2.782-2.87 2.782-5.181 0-3.379-2.439-6.033-6.82-6.033m17.843 0h-6.578v19.025h3.733V86.43h3.023c2.477 0 3.912-1.41 3.912-3.873 0-2.299-1.435-3.721-3.734-3.721H92.85v5.08h1.066v-4.013h3.2c1.715 0 2.668.965 2.668 2.654 0 1.524-.648 2.807-2.845 2.807h-4.09v8.915h-1.6V77.388h5.512c5.131 0 5.69 3.607 5.69 5.169 0 3.2-1.969 5.321-5.22 5.321h-1.714v1.067h1.714c4 0 6.287-2.756 6.287-6.388 0-3.29-1.969-6.236-6.757-6.236m19 0h-3.734l-4.28 11.773h9.55l-3.403-9.36-2.49 6.845h1.13l1.36-3.72 1.88 5.168h-6.503l3.505-9.639h2.235l6.147 16.891h-1.626l-1.714-4.737h-10.605l-2.108 5.804h3.886l1.194-3.29h-1.13l-.813 2.223h-1.613l1.334-3.67h9.106l1.714 4.737h3.899zm30.365 0-5.054 13.272-5.055-13.272h-3.95l3.734 9.792-3.111 8.166h-2.007l-6.452-16.891h1.664l5.791 15.202 2.464-6.477-.571-1.499-1.893 4.979-5.054-13.272h-3.95l7.264 19.025h3.48l3.518-9.233-3.327-8.725h1.663l5.792 15.202 5.79-15.202h1.664l-6.451 16.891h-2.007l-2.298-6.007-.572 1.498 2.134 5.576h3.48l7.264-19.025zm13.843 6.642-.355 1.004c3.048 1.257 4.406 3.162 4.406 6.032 0 1.435-.52 2.578-1.536 3.353-1.029.775-2.528 1.194-4.33 1.194-1.88 0-3.506-.369-5.297-1.22l.546-1.447c1.74.812 3.34 1.219 4.75 1.219 3.721 0 4.267-1.943 4.267-3.099 0-3.023-2.019-3.962-3.784-4.915-1.385-.75-2.617-1.384-2.617-3.34 0-1.346.978-2.12 2.87-2.12 1.487 0 2.858.431 4.408 1.231l1.27-3.454c-1.6-.813-2.73-1.36-5.69-1.36-3.518 0-6.591 1.931-6.591 5.716 0 2.946 1.498 5.042 4.203 6.26l.369-1.002c-1.969-.902-3.506-2.49-3.506-5.258 0-3.086 2.49-4.648 5.525-4.648 2.337 0 3.226.317 4.356.825l-.533 1.46c-1.36-.57-2.566-.838-3.81-.838-2.82 0-3.937 1.55-3.937 3.188 0 2.49 1.562 3.416 3.15 4.267 1.612.877 3.25 1.537 3.25 3.988 0 1.422-1.143 2.032-3.2 2.032-1.727 0-3.594-.711-5.334-1.626l-1.295 3.442c1.905 1.029 3.95 1.765 6.63 1.765 4.025 0 6.933-1.905 6.933-5.613 0-3.505-1.803-5.69-5.118-7.036" aria-label="Shutterpaws" style="font-size:25.4px;font-family:&quot;LIBRARY 3 AM&quot;;-inkscape-font-specification:&quot;LIBRARY 3 AM&quot;;fill:#fff;stroke-width:2.11666" transform="translate(32.397 -76.042)"/></svg>