<svg xmlns="http://www.w3.org/2000/svg" viewBox="0 0 36 24" width="750" height="500" xmlns:v="https://vecta.io/nano"><defs><path id="A" transform="scale(.024)" d="M0,215 a32 32 0 0 0 32 -32 v-16 h31 a32 32 0 0 0 0 -64 h-31 V32 H231 v31 a32 32 0 0 0 64 0 v-31 h28 a32 32 0 0 0 32 -32 L0,0 z"/></defs><path d="M0 0h36v24H0z"/><path fill="#eaaa00" d="M0 24V2l3 2v20h3V0h3v24h3V0h3v24h3V0h3v24h3V0h3v24h3V0h3v24h3v-2L3 0v4l30 20z"/><g id="B"><path fill="#fff" d="M18 0h9v12h9V6H18z"/><path fill="#9d2235" d="M27 0h9v6H18v6h9z"/><g transform="translate(27 6)"><use fill="#9d2235" href="#A"/><g fill="#fff"><use transform="scale(-1 1)" href="#A"/><use transform="scale(1 -1)" href="#A"/></g><use fill="#9d2235" transform="scale(-1)" href="#A"/></g></g><use x="-18" y="12" href="#B"/></svg>