<svg xmlns="http://www.w3.org/2000/svg" width="512" height="325" viewBox="0 0 6000 3810"><path fill="#750787" d="M0 0h6000v3810H0z"/><path fill="#004dff" d="M0 0h6000v3175H0z"/><path fill="#008026" d="M0 0h6000v2540H0z"/><path fill="#ffed00" d="M0 0h6000v1905H0z"/><path fill="#ff8c00" d="M0 0h6000v1270H0z"/><path fill="#e40303" d="M0 0h6000v635H0z"/><path d="M0-960.5 2864 1905 0 4770.5z"/><path fill="#613915" d="m0-480 2384 2385L0 4290z"/><path fill="#74d7ee" d="M0 3810V0l1912 1905z"/><path fill="#ffafc8" d="M0 3330V480l1420 1425z"/><path fill="#fff" d="m0 960 951 945L0 2850z"/></svg>